<svg width="512" height="512" viewBox="0 0 512 512" fill="none" xmlns="http://www.w3.org/2000/svg">
  <!-- Gradient background -->
  <defs>
    <linearGradient id="dropletGradient" x1="0%" y1="0%" x2="100%" y2="100%">
      <stop offset="0%" style="stop-color:#3b82f6;stop-opacity:1" />
      <stop offset="100%" style="stop-color:#06b6d4;stop-opacity:1" />
    </linearGradient>
  </defs>
  <rect width="512" height="512" fill="url(#dropletGradient)" rx="128"/>
  <!-- Droplets icon (simplified version matching Lucide) -->
  <g transform="translate(156, 156) scale(2.5)">
    <path d="M7 16.3c2.2 0 4-1.83 4-4.05 0-1.16-1.39-3.72-2.54-5.36a.8.8 0 0 0-1.28 0C6.03 8.53 3 11.1 3 12.25c0 2.22 1.79 4.05 4 4.05z" fill="white" stroke="white" stroke-width="1.5" stroke-linecap="round" stroke-linejoin="round"/>
    <path d="M12 8c.5-.5 1-1.33 1-2C13 4.34 11.35 2 10.6 1.2a.8.8 0 0 0-1.28 0C8.67 2 7 4.34 7 6c0 .67.5 1.5 1 2" fill="white" stroke="white" stroke-width="1.5" stroke-linecap="round" stroke-linejoin="round"/>
  </g>
</svg>
